<svg width="120" height="20" viewBox="0 0 120 20" fill="none" xmlns="http://www.w3.org/2000/svg">
<path d="M8.192 19.288C6.528 19.288 5.088 18.928 3.872 18.208C2.672 17.472 1.744 16.456 1.088 15.16C0.432004 13.848 0.104004 12.336 0.104004 10.624C0.104004 8.89599 0.432004 7.38399 1.088 6.08799C1.744 4.77599 2.672 3.75199 3.872 3.01599C5.088 2.27999 6.528 1.91199 8.192 1.91199C10.16 1.91199 11.768 2.39199 13.016 3.35199C14.264 4.31199 15.056 5.65599 15.392 7.38399H12.56C12.336 6.40799 11.856 5.63199 11.12 5.05599C10.384 4.47999 9.40001 4.19199 8.168 4.19199C6.488 4.19199 5.16 4.76799 4.184 5.91999C3.208 7.05599 2.72 8.62399 2.72 10.624C2.72 12.608 3.208 14.168 4.184 15.304C5.16 16.44 6.488 17.008 8.168 17.008C9.40001 17.008 10.384 16.736 11.12 16.192C11.856 15.648 12.336 14.904 12.56 13.96H15.392C15.056 15.624 14.264 16.928 13.016 17.872C11.768 18.816 10.16 19.288 8.192 19.288Z" fill="white"/>
<path d="M22.1244 19.288C21.1164 19.288 20.2844 19.12 19.6284 18.784C18.9724 18.448 18.4844 18.008 18.1644 17.464C17.8444 16.904 17.6844 16.296 17.6844 15.64C17.6844 14.488 18.1324 13.576 19.0284 12.904C19.9244 12.232 21.2044 11.896 22.8684 11.896H25.9884V11.68C25.9884 10.752 25.7324 10.056 25.2204 9.59199C24.7244 9.12799 24.0764 8.89599 23.2764 8.89599C22.5724 8.89599 21.9564 9.07199 21.4284 9.42399C20.9164 9.75999 20.6044 10.264 20.4924 10.936H17.9484C18.0284 10.072 18.3164 9.33599 18.8124 8.72799C19.3244 8.10399 19.9644 7.63199 20.7324 7.31199C21.5164 6.97599 22.3724 6.80799 23.3004 6.80799C24.9644 6.80799 26.2524 7.24799 27.1644 8.12799C28.0764 8.99199 28.5324 10.176 28.5324 11.68V19H26.3244L26.1084 16.96C25.7724 17.616 25.2844 18.168 24.6444 18.616C24.0044 19.064 23.1644 19.288 22.1244 19.288ZM22.6284 17.224C23.3164 17.224 23.8924 17.064 24.3564 16.744C24.8364 16.408 25.2044 15.968 25.4604 15.424C25.7324 14.88 25.9004 14.28 25.9644 13.624H23.1324C22.1244 13.624 21.4044 13.8 20.9724 14.152C20.5564 14.504 20.3484 14.944 20.3484 15.472C20.3484 16.016 20.5484 16.448 20.9484 16.768C21.3644 17.072 21.9244 17.224 22.6284 17.224Z" fill="white"/>
<path d="M36.2506 19.288C34.7466 19.288 33.5066 18.92 32.5306 18.184C31.5546 17.448 30.9946 16.472 30.8506 15.256H33.4186C33.5466 15.8 33.8506 16.272 34.3306 16.672C34.8106 17.056 35.4426 17.248 36.2266 17.248C36.9946 17.248 37.5546 17.088 37.9066 16.768C38.2586 16.448 38.4346 16.08 38.4346 15.664C38.4346 15.056 38.1866 14.648 37.6906 14.44C37.2106 14.216 36.5386 14.016 35.6746 13.84C35.0026 13.696 34.3306 13.504 33.6586 13.264C33.0026 13.024 32.4506 12.688 32.0026 12.256C31.5706 11.808 31.3546 11.208 31.3546 10.456C31.3546 9.41599 31.7546 8.55199 32.5546 7.86399C33.3546 7.15999 34.4746 6.80799 35.9146 6.80799C37.2426 6.80799 38.3146 7.12799 39.1306 7.76799C39.9626 8.40799 40.4506 9.31199 40.5946 10.48H38.1466C38.0666 9.96799 37.8266 9.56799 37.4266 9.27999C37.0426 8.99199 36.5226 8.84799 35.8666 8.84799C35.2266 8.84799 34.7306 8.984 34.3786 9.25599C34.0266 9.512 33.8506 9.84799 33.8506 10.264C33.8506 10.68 34.0906 11.008 34.5706 11.248C35.0666 11.488 35.7146 11.704 36.5146 11.896C37.3146 12.072 38.0506 12.28 38.7226 12.52C39.4106 12.744 39.9626 13.08 40.3786 13.528C40.7946 13.976 41.0026 14.632 41.0026 15.496C41.0186 16.584 40.5946 17.488 39.7306 18.208C38.8826 18.928 37.7226 19.288 36.2506 19.288Z" fill="white"/>
<path d="M43.7799 19V1.71999H46.3239V9.016C46.7239 8.32799 47.2759 7.79199 47.9799 7.40799C48.6999 7.00799 49.4919 6.80799 50.3559 6.80799C51.7799 6.80799 52.8999 7.25599 53.7159 8.15199C54.5319 9.04799 54.9399 10.384 54.9399 12.16V19H52.4199V12.424C52.4199 10.12 51.4999 8.96799 49.6599 8.96799C48.6999 8.96799 47.8999 9.30399 47.2599 9.97599C46.6359 10.648 46.3239 11.608 46.3239 12.856V19H43.7799Z" fill="white"/>
<path d="M60.6721 19.624C59.6321 19.624 58.8881 19.328 58.4401 18.736C57.9921 18.128 57.7681 17.232 57.7681 16.048C57.7681 14.848 58.2721 11.464 59.2801 5.89599L58.0081 3.32799C59.8161 2.15999 61.4641 1.57599 62.9521 1.57599C63.8961 1.57599 64.4801 2.02399 64.7041 2.91999C66.3361 2.87199 68.5121 2.46399 71.2321 1.69599C71.3601 2.41599 71.4241 3.02399 71.4241 3.51999C71.4241 4.54399 71.0321 5.35199 70.2481 5.94399C69.4801 6.51999 68.5841 6.80799 67.5601 6.80799C66.5361 6.80799 65.5121 6.55999 64.4881 6.06399C64.4881 6.06399 64.4161 6.45599 64.2721 7.23999C64.1601 7.86399 63.9761 8.81599 63.7201 10.096C64.2641 10.224 64.7761 10.288 65.2561 10.288C65.9121 10.16 66.6321 9.97599 67.4161 9.73599C67.4961 10.008 67.5361 10.456 67.5361 11.08C67.5361 11.688 67.2881 12.176 66.7921 12.544C66.2961 12.912 65.7361 13.096 65.1121 13.096C64.4881 13.096 63.8561 13.024 63.2161 12.88C63.0401 13.888 62.9521 14.616 62.9521 15.064C62.9521 16.616 63.1921 17.776 63.6721 18.544C62.7121 19.264 61.7121 19.624 60.6721 19.624Z" fill="white"/>
<path d="M74.0369 4.07199L72.6929 2.15199C74.6929 0.983994 76.2689 0.399994 77.4209 0.399994C78.0769 0.399994 78.5409 0.535994 78.8129 0.807994C79.0849 1.06399 79.2209 1.55999 79.2209 2.29599C79.2209 3.01599 78.8609 5.06399 78.1409 8.43999C77.4369 11.816 77.0849 14.184 77.0849 15.544C77.0849 16.904 77.3329 17.864 77.8289 18.424C76.7089 19.208 75.6929 19.6 74.7809 19.6C73.8689 19.6 73.1969 19.304 72.7649 18.712C72.3489 18.104 72.1409 17.272 72.1409 16.216C72.1409 15.16 72.4369 13 73.0289 9.73599C73.6209 6.47199 73.9569 4.58399 74.0369 4.07199Z" fill="white"/>
<path d="M92.6073 6.42399C93.5033 6.42399 94.2713 6.78399 94.9113 7.50399C95.5673 8.22399 95.8953 9.27199 95.8953 10.648C95.8953 12.008 95.6553 13.272 95.1753 14.44C94.6953 15.592 94.0633 16.536 93.2793 17.272C92.4953 18.008 91.6073 18.584 90.6153 19C89.6233 19.4 88.6073 19.6 87.5673 19.6C85.4713 19.6 83.8153 19.024 82.5993 17.872C81.3833 16.72 80.7753 15.192 80.7753 13.288C80.7753 10.712 81.5993 8.62399 83.2473 7.02399C84.9113 5.40799 87.0233 4.59999 89.5833 4.59999C90.1593 4.59999 90.7353 4.66399 91.3113 4.79199C91.4873 5.31999 91.5833 5.91999 91.5993 6.59199C91.9353 6.47999 92.2713 6.42399 92.6073 6.42399ZM89.6553 9.75999C89.6553 9.31199 89.7593 8.80799 89.9673 8.24799C90.1913 7.68799 90.5433 7.23999 91.0233 6.90399C88.9113 7.35199 87.4553 8.20799 86.6553 9.47199C85.9673 10.56 85.6233 11.68 85.6233 12.832C85.6233 13.984 85.8553 14.912 86.3193 15.616C86.7993 16.304 87.4073 16.648 88.1433 16.648C89.7753 16.648 90.9273 15.584 91.5993 13.456C90.3033 12.656 89.6553 11.424 89.6553 9.75999Z" fill="white"/>
<path d="M99.1556 16.864C99.2036 13.376 99.2276 11.008 99.2276 9.75999C99.2276 7.90399 98.7956 6.52799 97.9316 5.63199C98.7636 4.94399 99.6756 4.59999 100.668 4.59999C101.9 4.59999 102.748 5.11999 103.212 6.15999C103.676 7.18399 103.908 8.71999 103.908 10.768C103.908 12.816 103.868 14.784 103.788 16.672H104.604C105.932 14.384 106.732 12.592 107.004 11.296C106.988 10.48 106.868 9.54399 106.644 8.48799C106.436 7.41599 106.204 6.66399 105.948 6.23199C106.188 5.92799 106.556 5.67999 107.052 5.48799C107.548 5.27999 108.1 5.17599 108.708 5.17599C109.316 5.17599 109.876 5.35999 110.388 5.72799C110.916 6.09599 111.18 6.63999 111.18 7.35999C111.18 7.80799 111.108 8.23199 110.964 8.63199C110.82 9.03199 110.676 9.44799 110.532 9.87999C110.388 10.296 110.268 10.64 110.172 10.912L110.076 16.672H110.892C111.804 14.912 112.636 13.064 113.388 11.128C114.156 9.19199 114.54 7.71999 114.54 6.71199C114.54 6.34399 114.468 5.98399 114.324 5.63199C115.412 4.94399 116.46 4.59999 117.468 4.59999C118.78 4.59999 119.436 5.35199 119.436 6.85599C119.436 7.54399 119.26 8.40799 118.908 9.44799C118.556 10.472 118.012 11.8 117.276 13.432C116.556 15.048 116.18 15.888 116.148 15.952L116.484 17.344C115.86 17.824 114.916 18.32 113.652 18.832C112.404 19.344 111.26 19.6 110.22 19.6C108.556 19.6 107.556 18.872 107.22 17.416C105.716 18.872 104.124 19.6 102.444 19.6C101.516 19.6 100.732 19.392 100.092 18.976C99.4676 18.544 99.1556 17.84 99.1556 16.864Z" fill="white"/>
</svg>
