<svg width="127" height="20" viewBox="0 0 127 20" fill="none" xmlns="http://www.w3.org/2000/svg">
<path d="M8.57986 19.6504C6.79659 19.6504 5.26568 19.2759 3.98711 18.5268C2.70854 17.7611 1.72438 16.7041 1.03463 15.3558C0.344877 13.9908 0 12.4178 0 10.6367C0 8.8556 0.344877 7.28256 1.03463 5.9176C1.72438 4.55264 2.70854 3.48731 3.98711 2.7216C5.26568 1.95589 6.79659 1.57303 8.57986 1.57303C10.6996 1.57303 12.4324 2.09738 13.7782 3.14607C15.1409 4.17811 15.9905 5.63462 16.327 7.5156H12.7688C12.5501 6.56679 12.0791 5.82605 11.3557 5.29338C10.6491 4.74407 9.70701 4.46941 8.52939 4.46941C6.89753 4.46941 5.61896 5.01873 4.69369 6.11735C3.76841 7.21598 3.30577 8.72243 3.30577 10.6367C3.30577 12.551 3.76841 14.0574 4.69369 15.1561C5.61896 16.238 6.89753 16.779 8.52939 16.779C9.70701 16.779 10.6491 16.5293 11.3557 16.03C12.0791 15.5139 12.5501 14.8065 12.7688 13.9076H16.327C15.9905 15.7054 15.1409 17.1119 13.7782 18.1273C12.4324 19.1427 10.6996 19.6504 8.57986 19.6504Z" fill="#00856F"/>
<path d="M23.4256 19.6504C22.349 19.6504 21.4657 19.484 20.776 19.1511C20.0862 18.8015 19.5731 18.3437 19.2367 17.7778C18.9002 17.2118 18.732 16.5876 18.732 15.9051C18.732 14.7566 19.1862 13.8244 20.0946 13.1086C21.0031 12.3928 22.3658 12.035 24.1827 12.035H27.3623V11.7353C27.3623 10.8864 27.1183 10.2622 26.6305 9.86267C26.1426 9.46317 25.537 9.26342 24.8136 9.26342C24.1575 9.26342 23.5855 9.42156 23.0976 9.73783C22.6097 10.0375 22.3069 10.4869 22.1891 11.0861H19.0348C19.1189 10.1873 19.4217 9.40491 19.9432 8.73908C20.4816 8.07324 21.1713 7.56554 22.0125 7.21598C22.8537 6.84977 23.7958 6.66667 24.8388 6.66667C26.6221 6.66667 28.0268 7.10778 29.053 7.99001C30.0792 8.87224 30.5924 10.1207 30.5924 11.7353V19.3508H27.8417L27.5389 17.3533C27.1688 18.0191 26.6473 18.5685 25.9744 19.0012C25.3183 19.434 24.4687 19.6504 23.4256 19.6504ZM24.1575 17.1536C25.0827 17.1536 25.7977 16.8539 26.3024 16.2547C26.8239 15.6554 27.152 14.9147 27.2866 14.0325H24.536C23.678 14.0325 23.0639 14.1906 22.6938 14.5069C22.3237 14.8065 22.1387 15.181 22.1387 15.6305C22.1387 16.1132 22.3237 16.4877 22.6938 16.7541C23.0639 17.0204 23.5518 17.1536 24.1575 17.1536Z" fill="#00856F"/>
<path d="M38.8479 19.6504C37.7376 19.6504 36.7618 19.4757 35.9207 19.1261C35.0795 18.7599 34.4066 18.2605 33.9019 17.628C33.3972 16.9954 33.0943 16.263 32.9934 15.4307H36.2487C36.3496 15.9134 36.6188 16.3296 37.0562 16.6792C37.5104 17.0121 38.0909 17.1785 38.7974 17.1785C39.504 17.1785 40.0171 17.037 40.3368 16.7541C40.6732 16.4711 40.8415 16.1465 40.8415 15.7803C40.8415 15.2476 40.6059 14.8897 40.1349 14.7066C39.6638 14.5069 39.0077 14.3154 38.1666 14.1323C37.6282 14.0158 37.0815 13.8743 36.5263 13.7079C35.9711 13.5414 35.458 13.3333 34.987 13.0836C34.5327 12.8173 34.1626 12.4844 33.8766 12.0849C33.5906 11.6687 33.4476 11.161 33.4476 10.5618C33.4476 9.46317 33.885 8.53933 34.7598 7.79026C35.6515 7.0412 36.8964 6.66667 38.4946 6.66667C39.9751 6.66667 41.1527 7.00791 42.0275 7.69039C42.9191 8.37287 43.4491 9.31336 43.6173 10.5119H40.5639C40.3788 9.59634 39.6806 9.13858 38.4694 9.13858C37.8637 9.13858 37.3927 9.2551 37.0562 9.48814C36.7366 9.72118 36.5768 10.0125 36.5768 10.362C36.5768 10.7283 36.8207 11.0196 37.3086 11.236C37.7964 11.4524 38.4441 11.6521 39.2517 11.8352C40.1265 12.035 40.9256 12.2597 41.649 12.5094C42.3892 12.7424 42.978 13.1003 43.4154 13.583C43.8528 14.0491 44.0715 14.7233 44.0715 15.6055C44.0883 16.3712 43.8865 17.062 43.4659 17.6779C43.0453 18.2938 42.4397 18.7765 41.649 19.1261C40.8583 19.4757 39.9246 19.6504 38.8479 19.6504Z" fill="#00856F"/>
<path d="M46.9329 19.3508V1.37328H50.163V8.86392C50.5836 8.18144 51.1471 7.64877 51.8537 7.26592C52.5771 6.86642 53.4015 6.66667 54.3267 6.66667C55.8745 6.66667 57.0689 7.1494 57.9101 8.11486C58.7681 9.08032 59.1971 10.4952 59.1971 12.3596V19.3508H55.9922V12.6592C55.9922 11.5938 55.7735 10.7782 55.3361 10.2122C54.9155 9.64628 54.2426 9.3633 53.3173 9.3633C52.4089 9.3633 51.6518 9.67957 51.0462 10.3121C50.4574 10.9447 50.163 11.8269 50.163 12.9588V19.3508H46.9329Z" fill="#00856F"/>
<path d="M65.213 20C64.1195 20 63.3372 19.6921 62.8662 19.0762C62.3951 18.4436 62.1596 17.5114 62.1596 16.2796C62.1596 15.0312 62.6895 11.5106 63.7494 5.71785L62.4119 3.04619C64.313 1.83104 66.0458 1.22347 67.6103 1.22347C68.6029 1.22347 69.2169 1.68956 69.4525 2.62172C71.1684 2.57179 73.4564 2.14732 76.3164 1.34832C76.4509 2.09738 76.5182 2.72992 76.5182 3.24594C76.5182 4.31128 76.1061 5.15189 75.2817 5.76779C74.4742 6.36704 73.5321 6.66667 72.4554 6.66667C71.3787 6.66667 70.302 6.40866 69.2254 5.89263C69.2254 5.89263 69.1497 6.30046 68.9982 7.11611C68.8805 7.76529 68.687 8.75572 68.4178 10.0874C68.9898 10.2206 69.5282 10.2871 70.0329 10.2871C70.7226 10.154 71.4797 9.96255 72.304 9.71286C72.3881 9.99584 72.4302 10.4619 72.4302 11.1111C72.4302 11.7437 72.1694 12.2514 71.6479 12.6342C71.1264 13.0171 70.5376 13.2085 69.8815 13.2085C69.2254 13.2085 68.5608 13.1336 67.8879 12.9838C67.7029 14.0325 67.6103 14.7898 67.6103 15.2559C67.6103 16.8706 67.8627 18.0774 68.3674 18.8764C67.358 19.6255 66.3065 20 65.213 20Z" fill="black"/>
<path d="M79.2655 3.82022L77.8523 1.82272C79.9552 0.607574 81.6123 0 82.8236 0C83.5134 0 84.0012 0.14149 84.2872 0.42447C84.5732 0.690803 84.7162 1.20682 84.7162 1.97253C84.7162 2.7216 84.3377 4.85227 83.5806 8.36454C82.8404 11.8768 82.4703 14.3404 82.4703 15.7553C82.4703 17.1702 82.7311 18.169 83.2526 18.7516C82.075 19.5672 81.0067 19.975 80.0478 19.975C79.0888 19.975 78.3823 19.6671 77.928 19.0512C77.4906 18.4186 77.2719 17.5531 77.2719 16.4544C77.2719 15.3558 77.5832 13.1086 78.2056 9.71286C78.8281 6.3171 79.1814 4.35289 79.2655 3.82022Z" fill="black"/>
<path d="M98.7914 6.26717C99.7335 6.26717 100.541 6.6417 101.214 7.39076C101.904 8.13982 102.249 9.23013 102.249 10.6617C102.249 12.0766 101.996 13.3916 101.491 14.6067C100.987 15.8052 100.322 16.7873 99.4979 17.5531C98.6736 18.3188 97.7399 18.918 96.6969 19.3508C95.6538 19.767 94.5855 19.975 93.492 19.975C91.2882 19.975 89.547 19.3758 88.2684 18.1773C86.9898 16.9788 86.3506 15.3891 86.3506 13.4082C86.3506 10.7283 87.217 8.55597 88.9498 6.89139C90.6994 5.21015 92.92 4.36954 95.6118 4.36954C96.2174 4.36954 96.823 4.43612 97.4287 4.56929C97.6137 5.1186 97.7147 5.74282 97.7315 6.44195C98.0848 6.32543 98.4381 6.26717 98.7914 6.26717ZM95.6875 9.73783C95.6875 9.27174 95.7968 8.7474 96.0155 8.16479C96.251 7.58219 96.6212 7.11611 97.1259 6.76654C94.9052 7.23263 93.3743 8.12318 92.5331 9.4382C91.8097 10.5701 91.448 11.7353 91.448 12.9338C91.448 14.1323 91.6919 15.0978 92.1798 15.8302C92.6845 16.546 93.3238 16.9039 94.0977 16.9039C95.8136 16.9039 97.0249 15.7969 97.7315 13.583C96.3688 12.7507 95.6875 11.469 95.6875 9.73783Z" fill="black"/>
<path d="M105.677 17.1286C105.727 13.4998 105.752 11.0362 105.752 9.73783C105.752 7.80691 105.298 6.37536 104.39 5.4432C105.264 4.72742 106.223 4.36954 107.266 4.36954C108.562 4.36954 109.453 4.91053 109.941 5.99251C110.429 7.05784 110.673 8.65585 110.673 10.7865C110.673 12.9172 110.631 14.9646 110.547 16.9288H111.405C112.801 14.5485 113.642 12.6841 113.928 11.3358C113.912 10.4869 113.785 9.51311 113.55 8.41448C113.331 7.29921 113.087 6.51685 112.818 6.06742C113.07 5.75114 113.457 5.49313 113.979 5.29338C114.5 5.07699 115.081 4.96879 115.72 4.96879C116.359 4.96879 116.948 5.16022 117.486 5.54307C118.042 5.92593 118.319 6.49189 118.319 7.24095C118.319 7.70703 118.243 8.14815 118.092 8.56429C117.941 8.98044 117.789 9.41323 117.638 9.86267C117.486 10.2955 117.36 10.6534 117.259 10.9363L117.158 16.9288H118.016C118.975 15.0978 119.85 13.1752 120.641 11.161C121.448 9.1469 121.852 7.61548 121.852 6.56679C121.852 6.18394 121.776 5.8094 121.625 5.4432C122.769 4.72742 123.871 4.36954 124.931 4.36954C126.31 4.36954 127 5.15189 127 6.7166C127 7.43238 126.815 8.33125 126.445 9.41323C126.075 10.4786 125.503 11.8602 124.729 13.5581C123.972 15.2393 123.576 16.1132 123.543 16.1798L123.896 17.628C123.24 18.1273 122.247 18.6434 120.918 19.176C119.606 19.7087 118.403 19.975 117.31 19.975C115.56 19.975 114.509 19.2176 114.155 17.7029C112.574 19.2176 110.9 19.975 109.134 19.975C108.158 19.975 107.334 19.7586 106.661 19.3258C106.005 18.8764 105.677 18.144 105.677 17.1286Z" fill="black"/>
</svg>
